<svg width="70" height="76" viewBox="0 0 70 76" fill="none" xmlns="http://www.w3.org/2000/svg">
<path d="M0 10C0 4.47715 4.47715 0 10 0H60C65.5229 0 70 4.47715 70 10V66C70 71.5229 65.5229 76 60 76H10C4.47715 76 0 71.5229 0 66V10Z" fill="#E74040"/>
<path d="M41.666 44.6663H37.666V41.9997H41.666C43.8752 41.9997 45.666 40.2088 45.666 37.9997C45.666 35.7905 43.8752 33.9997 41.666 33.9997H37.666V31.333H41.666C45.3479 31.333 48.3327 34.3178 48.3327 37.9997C48.3327 41.6816 45.3479 44.6663 41.666 44.6663ZM32.3327 44.6663H28.3327C24.6508 44.6663 21.666 41.6816 21.666 37.9997C21.666 34.3178 24.6508 31.333 28.3327 31.333H32.3327V33.9997H28.3327C26.1235 33.9997 24.3327 35.7905 24.3327 37.9997C24.3327 40.2088 26.1235 41.9997 28.3327 41.9997H32.3327V44.6663ZM41.666 39.333H28.3327V36.6663H41.666V39.333Z" fill="white"/>
</svg>
