<svg width="70" height="76" viewBox="0 0 70 76" fill="none" xmlns="http://www.w3.org/2000/svg">
<path d="M0 10C0 4.47715 4.47715 0 10 0H60C65.5229 0 70 4.47715 70 10V66C70 71.5229 65.5229 76 60 76H10C4.47715 76 0 71.5229 0 66V10Z" fill="#E74040"/>
<path d="M34.9993 51.3337C27.6356 51.3337 21.666 45.3641 21.666 38.0003C21.666 30.6365 27.6356 24.667 34.9993 24.667C42.3631 24.667 48.3327 30.6365 48.3327 38.0003C48.3246 45.3608 42.3598 51.3256 34.9993 51.3337ZM33.666 44.667V47.3337H36.3327V44.667H33.666ZM34.9993 31.3337C36.4721 31.3337 37.666 32.5276 37.666 34.0003C37.6707 34.708 37.3866 35.3869 36.8793 35.8803L35.226 37.5603C34.2279 38.5626 33.6671 39.9192 33.666 41.3337V42.0003H36.3327C36.2291 40.567 36.8072 39.1687 37.8927 38.227L39.0927 37.0003C39.8901 36.2061 40.3366 35.1258 40.3327 34.0003C40.3327 31.0548 37.9449 28.667 34.9993 28.667C32.0538 28.667 29.666 31.0548 29.666 34.0003H32.3327C32.3327 32.5276 33.5266 31.3337 34.9993 31.3337Z" fill="white"/>
</svg>
