<svg width="38" height="34" viewBox="0 0 38 34" fill="none" xmlns="http://www.w3.org/2000/svg">
<path d="M36.5005 24.1039H11.2759L12.5424 21.5371L33.5862 21.4992C34.2978 21.4992 34.9078 20.9934 35.0349 20.2938L37.9492 4.06297C38.0254 3.63729 37.911 3.19896 37.6315 2.866C37.4933 2.70213 37.321 2.57013 37.1264 2.47916C36.9318 2.38819 36.7197 2.34042 36.5047 2.33916L9.73403 2.25065L9.50529 1.18012C9.36128 0.497335 8.74284 0 8.03968 0H1.49526C1.09869 0 0.718368 0.156749 0.437952 0.435763C0.157536 0.714778 0 1.0932 0 1.48779C0 1.88238 0.157536 2.2608 0.437952 2.53982C0.718368 2.81883 1.09869 2.97558 1.49526 2.97558H6.82822L7.82789 7.70447L10.2889 19.5604L7.1205 24.7066C6.95596 24.9276 6.85685 25.1899 6.83439 25.464C6.81194 25.7381 6.86702 26.013 6.99342 26.2576C7.24758 26.7591 7.76012 27.0752 8.32772 27.0752H10.9878C10.4207 27.8247 10.1144 28.7376 10.1153 29.6757C10.1153 32.0612 12.0638 34 14.4613 34C16.8588 34 18.8073 32.0612 18.8073 29.6757C18.8073 28.7358 18.4938 27.8212 17.9347 27.0752H24.7587C24.1916 27.8247 23.8852 28.7376 23.8861 29.6757C23.8861 32.0612 25.8346 34 28.2321 34C30.6296 34 32.5781 32.0612 32.5781 29.6757C32.5781 28.7358 32.2646 27.8212 31.7055 27.0752H36.5047C37.3265 27.0752 38 26.4093 38 25.5875C37.9975 25.1933 37.8385 24.8161 37.5576 24.5381C37.2767 24.2602 36.8967 24.1041 36.5005 24.1039ZM10.3567 5.18408L34.7468 5.26416L32.3578 18.5742L13.199 18.6079L10.3567 5.18408ZM14.4613 31.0076C13.7242 31.0076 13.1227 30.4091 13.1227 29.6757C13.1227 28.9424 13.7242 28.3439 14.4613 28.3439C15.1983 28.3439 15.7998 28.9424 15.7998 29.6757C15.7998 30.0289 15.6588 30.3677 15.4078 30.6175C15.1567 30.8672 14.8163 31.0076 14.4613 31.0076ZM28.2321 31.0076C27.495 31.0076 26.8935 30.4091 26.8935 29.6757C26.8935 28.9424 27.495 28.3439 28.2321 28.3439C28.9691 28.3439 29.5706 28.9424 29.5706 29.6757C29.5706 30.0289 29.4296 30.3677 29.1786 30.6175C28.9275 30.8672 28.5871 31.0076 28.2321 31.0076Z" fill="white"/>
</svg>
