<svg width="70" height="76" viewBox="0 0 70 76" fill="none" xmlns="http://www.w3.org/2000/svg">
<path d="M0 10C0 4.47715 4.47715 0 10 0H60C65.5229 0 70 4.47715 70 10V66C70 71.5229 65.5229 76 60 76H10C4.47715 76 0 71.5229 0 66V10Z" fill="#E74040"/>
<path d="M45.666 48.6663H24.3327C22.8599 48.6663 21.666 47.4724 21.666 45.9997V29.9997C21.666 28.5269 22.8599 27.333 24.3327 27.333H45.666C47.1388 27.333 48.3327 28.5269 48.3327 29.9997V45.9997C48.3327 47.4724 47.1388 48.6663 45.666 48.6663ZM24.3327 37.9997V45.9997H45.666V37.9997H24.3327ZM24.3327 29.9997V32.6663H45.666V29.9997H24.3327ZM36.3327 43.333H26.9993V40.6663H36.3327V43.333Z" fill="white"/>
</svg>
